<svg width="24" height="16" viewBox="0 0 24 16" fill="none" xmlns="http://www.w3.org/2000/svg">
<path fill-rule="evenodd" clip-rule="evenodd" d="M0 15.9689H23.9532V0H0V15.9689Z" fill="#F3F3F3"/>
<path fill-rule="evenodd" clip-rule="evenodd" d="M0 3.99158H23.9532V1.99561H0V3.99158ZM0 7.98391H23.9532V5.98812H0V7.98391ZM0 11.9759H23.9532V9.97989H0V11.9759ZM0 15.9682H23.9532V13.9722H0V15.9682Z" fill="#D80027"/>
<path fill-rule="evenodd" clip-rule="evenodd" d="M0 8.59864H11.9766V0H0V8.59864Z" fill="#2E52B2"/>
<path fill-rule="evenodd" clip-rule="evenodd" d="M9.94371 1.38086L9.75073 1.97422H9.12701L9.63176 2.34081L9.43878 2.93422L9.94371 2.56762L10.4483 2.93422L10.2553 2.34081L10.7602 1.97422H10.1363L9.94371 1.38086ZM7.30685 1.38086L7.11401 1.97422H6.49015L6.9949 2.34081L6.8021 2.93422L7.30685 2.56762L7.81141 2.93422L7.61862 2.34081L8.12336 1.97422H7.49946L7.30685 1.38086ZM9.94371 3.52229L9.75073 4.11569H9.12701L9.63176 4.48229L9.43878 5.07546L9.94371 4.70905L10.4483 5.07546L10.2553 4.48229L10.7602 4.11569H10.1363L9.94371 3.52229ZM10.1363 6.25693L9.94371 5.66371L9.75073 6.25693H9.12701L9.63176 6.62353L9.43878 7.21693L9.94371 6.85033L10.4483 7.21693L10.2553 6.62353L10.7602 6.25693H10.1363ZM7.49946 6.25693L7.30685 5.66371L7.11401 6.25693H6.49015L6.9949 6.62353L6.8021 7.21693L7.30685 6.85033L7.81141 7.21693L7.61862 6.62353L8.12336 6.25693H7.49946ZM7.30685 3.52229L7.11401 4.11569H6.49015L6.9949 4.48229L6.8021 5.07546L7.30685 4.70905L7.81141 5.07546L7.61862 4.48229L8.12336 4.11569H7.49946L7.30685 3.52229ZM2.03326 1.38086L1.84028 1.97422H1.21637L1.72131 2.34081L1.52832 2.93422L2.03326 2.56762L2.53782 2.93422L2.34484 2.34081L2.84959 1.97422H2.22587L2.03326 1.38086ZM4.66994 1.38086L4.47714 1.97422H3.85324L4.35798 2.34081L4.16519 2.93422L4.66994 2.56762L5.1745 2.93422L4.9817 2.34081L5.48645 1.97422H4.86259L4.66994 1.38086ZM2.03326 3.52229L1.84028 4.11569H1.21637L1.72131 4.48229L1.52832 5.07546L2.03326 4.70905L2.53782 5.07546L2.34484 4.48229L2.84959 4.11569H2.22587L2.03326 3.52229ZM2.22587 6.25693L2.03326 5.66371L1.84028 6.25693H1.21637L1.72131 6.62353L1.52832 7.21693L2.03326 6.85033L2.53782 7.21693L2.34484 6.62353L2.84959 6.25693H2.22587ZM4.86259 6.25693L4.66994 5.66371L4.47714 6.25693H3.85324L4.35798 6.62353L4.16519 7.21693L4.66994 6.85033L5.1745 7.21693L4.9817 6.62353L5.48645 6.25693H4.86259ZM4.66994 3.52229L4.47714 4.11569H3.85324L4.35798 4.48229L4.16519 5.07546L4.66994 4.70905L5.1745 5.07546L4.9817 4.48229L5.48645 4.11569H4.86259L4.66994 3.52229Z" fill="#F3F3F3"/>
</svg>
