<svg width="19" height="15" viewBox="0 0 19 15" fill="none" xmlns="http://www.w3.org/2000/svg">
<path fill-rule="evenodd" clip-rule="evenodd" d="M18.7833 2.37767L18.0311 1.62354L11.0557 8.59894C10.1843 9.46997 8.71842 9.46997 7.84461 8.59894L0.871584 1.66396L0.117058 2.4161L5.30958 7.60823L0.117058 12.8004L0.871584 13.5525L6.06133 8.36038L7.09286 9.39151C7.72771 10.0264 8.55832 10.3822 9.42975 10.3822C10.3036 10.3822 11.1342 10.0264 11.7694 9.39151L12.7982 8.36038L17.9907 13.5525L18.7424 12.8004L13.5527 7.60823L18.7833 2.37767Z" fill="#545454"/>
<path fill-rule="evenodd" clip-rule="evenodd" d="M1.62346 1.46557C1.30603 1.46557 1.06985 1.70413 1.06985 2.01958V13.1964C1.06985 13.5118 1.30603 13.7504 1.62346 13.7504H17.2767C17.5945 13.7504 17.8327 13.5118 17.8327 13.1964V2.01958C17.8327 1.70413 17.5945 1.46557 17.2767 1.46557H1.62346ZM17.3175 14.8988H1.66427C0.752027 14.8988 -0.00012207 14.1467 -0.00012207 13.2348V2.06C-0.00012207 1.14814 0.752027 0.395996 1.66427 0.395996H17.3175C18.229 0.395996 18.9815 1.14814 18.9815 2.06V13.2348C18.9815 14.1467 18.229 14.8988 17.3175 14.8988Z" fill="#545454"/>
</svg>
