<svg width="23" height="23" viewBox="0 0 23 23" fill="none" xmlns="http://www.w3.org/2000/svg">
<path fill-rule="evenodd" clip-rule="evenodd" d="M9.21846 22.7707C8.81956 22.6924 8.5644 22.305 8.64274 21.9089C8.72109 21.51 9.10849 21.2549 9.50381 21.3332C14.6508 22.338 19.7072 19.2222 21.1253 14.1737C22.5405 9.12236 19.8394 3.83308 14.9174 2.0168C9.99902 0.202676 4.50993 2.46889 2.30624 7.22774C0.0989614 11.9866 1.92099 17.641 6.48649 20.2184C6.83149 20.4182 6.95009 20.8588 6.75315 21.2038C6.55406 21.5496 6.11274 21.6674 5.76774 21.4705C0.573337 18.4805 -1.45713 12.0038 1.10449 6.58446C3.66756 1.16868 9.95949 -1.37498 15.5665 0.744613C21.1727 2.86133 24.2137 8.93261 22.5513 14.6905C20.8895 20.4491 15.0835 23.9638 9.20984 22.7707H9.21846Z" fill="#202244"/>
<path fill-rule="evenodd" clip-rule="evenodd" d="M11.5175 4.31348C7.54786 4.31348 4.33002 7.53132 4.33002 11.501C4.33002 15.4706 7.54786 18.6885 11.5175 18.6885C15.4872 18.6885 18.705 15.4706 18.705 11.501C18.705 7.53132 15.4872 4.31348 11.5175 4.31348ZM11.5175 20.126C6.75292 20.126 2.89252 16.2656 2.89252 11.501C2.89252 6.73638 6.75292 2.87598 11.5175 2.87598C16.2821 2.87598 20.1425 6.73638 20.1425 11.501C20.1425 16.2656 16.2821 20.126 11.5175 20.126Z" fill="#202244"/>
<path fill-rule="evenodd" clip-rule="evenodd" d="M11.5175 17.251C11.1215 17.251 10.7988 16.9283 10.7988 16.5323C10.7988 16.1363 11.1215 15.8135 11.5175 15.8135C11.9136 15.8135 12.2363 16.1363 12.2363 16.5323C12.2363 16.9283 11.9136 17.251 11.5175 17.251ZM11.5175 14.376C11.1215 14.376 10.7988 14.0533 10.7988 13.6573C10.7988 12.6438 11.4083 11.7282 12.3427 11.3357C13.4208 10.9088 13.9685 9.70416 13.5811 8.61166C13.1937 7.517 12.0113 6.92763 10.9052 7.27263C9.79901 7.62122 9.16507 8.78057 9.46767 9.89822C9.56901 10.2828 9.33614 10.6759 8.95161 10.7737C8.56707 10.875 8.17392 10.6421 8.07545 10.2576C7.59532 8.39891 8.66195 6.49207 10.4955 5.92785C12.329 5.36075 14.2833 6.33466 14.9345 8.14016C15.5857 9.94566 14.7045 11.9445 12.9328 12.6805C12.5224 12.8322 12.2449 13.2196 12.2363 13.6573C12.2363 14.0533 11.9136 14.376 11.5175 14.376Z" fill="#202244"/>
</svg>
