<svg width="16" height="18" viewBox="0 0 16 18" fill="none" xmlns="http://www.w3.org/2000/svg">
<path fill-rule="evenodd" clip-rule="evenodd" d="M9.16557 7.9452C9.16029 8.30085 8.97414 8.6328 8.65992 8.82872V10.5296C8.65992 10.8753 8.36552 11.1536 7.99982 11.1536C7.63412 11.1536 7.33971 10.8753 7.33971 10.5296V8.82872C7.0255 8.6328 6.83935 8.30085 6.83406 7.9452C6.83406 7.33621 7.35555 6.84328 7.99982 6.84328C8.64408 6.84328 9.16557 7.33621 9.16557 7.9452ZM14.4728 10.3C14.0649 12.9469 10.9135 15.2817 9.07711 16.4423C8.42229 16.8566 7.57735 16.8566 6.92252 16.4423C5.0861 15.2817 1.93474 12.9469 1.53339 10.3736L1.32084 4.22764C1.3116 3.94811 1.49643 3.69977 1.78028 3.61242C3.81737 3.05085 5.78185 2.29087 7.64864 1.33995C7.86515 1.20892 8.13448 1.20892 8.35099 1.33995C10.2178 2.29087 12.1875 3.05085 14.2246 3.61242C14.5032 3.69977 14.6894 3.94811 14.6788 4.22764L14.4728 10.3ZM14.6167 2.4219C12.6826 1.89153 10.8158 1.17024 9.03619 0.277974C8.40248 -0.0926581 7.59715 -0.0926581 6.96345 0.277974C5.18379 1.17024 3.31701 1.89153 1.38289 2.4219C0.537951 2.67648 -0.024461 3.43147 0.000623142 4.27007L0.217139 10.481C0.708259 13.6058 4.16855 16.2089 6.19508 17.4806C7.28822 18.1731 8.71141 18.1731 9.80455 17.4806C11.8324 16.2089 15.2927 13.6058 15.7878 10.4123L15.999 4.27007C16.0241 3.43147 15.463 2.67648 14.6167 2.4219Z" fill="#202244"/>
</svg>
